inDegrees=no
num_controls=7
num_derivatives=13
num_iterations=135
num_multipliers=7
num_parameters=0
num_slacks=7
num_states=26
objective=0.448387
objective_accelerations=0.048241
objective_balance=0.007301
objective_effort=0.035816
objective_height=0.352090
objective_ligament=0.004939
solver_duration=1934.470016
status=Solve_Succeeded
success=true
DataType=double
version=3
OpenSimVersion=4.5
endheader
time	/jointset/ground_pelvis/pelvis_tilt/value	/jointset/ground_pelvis/pelvis_tx/value	/jointset/ground_pelvis/pelvis_ty/value	/jointset/hip_l/hip_flexion_l/value	/jointset/hip_l/hip_adduction_l/value	/jointset/hip_l/hip_rotation_l/value	/jointset/back/lumbar_extension/value	/jointset/patellofemoral_l/patellar_flexion_l/value	/jointset/knee_l/knee_flexion_l/value	/jointset/knee_l/knee_adduction_l/value	/jointset/knee_l/knee_rotation_l/value	/jointset/ankle_l/ankle_angle_l/value	/jointset/subtalar_l/subtalar_angle_l/value	/jointset/ground_pelvis/pelvis_tilt/speed	/jointset/ground_pelvis/pelvis_tx/speed	/jointset/ground_pelvis/pelvis_ty/speed	/jointset/hip_l/hip_flexion_l/speed	/jointset/hip_l/hip_adduction_l/speed	/jointset/hip_l/hip_rotation_l/speed	/jointset/back/lumbar_extension/speed	/jointset/patellofemoral_l/patellar_flexion_l/speed	/jointset/knee_l/knee_flexion_l/speed	/jointset/knee_l/knee_adduction_l/speed	/jointset/knee_l/knee_rotation_l/speed	/jointset/ankle_l/ankle_angle_l/speed	/jointset/subtalar_l/subtalar_angle_l/speed	/forceset/tau_hip_flexion_l	/forceset/tau_hip_adduction_l	/forceset/tau_hip_rotation_l	/forceset/tau_knee_flexion_l	/forceset/tau_ankle_angle_l	/forceset/tau_subtalar_angle_l	/forceset/tau_lumbar_extension	lambda_cid13_p0	lambda_cid13_p1	lambda_cid13_p2	lambda_cid13_p3	lambda_cid13_p4	lambda_cid13_p5	lambda_cid14_p0	/jointset/ground_pelvis/pelvis_tilt/accel	/jointset/ground_pelvis/pelvis_tx/accel	/jointset/ground_pelvis/pelvis_ty/accel	/jointset/hip_l/hip_flexion_l/accel	/jointset/hip_l/hip_adduction_l/accel	/jointset/hip_l/hip_rotation_l/accel	/jointset/back/lumbar_extension/accel	/jointset/patellofemoral_l/patellar_flexion_l/accel	/jointset/knee_l/knee_flexion_l/accel	/jointset/knee_l/knee_adduction_l/accel	/jointset/knee_l/knee_rotation_l/accel	/jointset/ankle_l/ankle_angle_l/accel	/jointset/subtalar_l/subtalar_angle_l/accel	gamma_cid13_p0	gamma_cid13_p1	gamma_cid13_p2	gamma_cid13_p3	gamma_cid13_p4	gamma_cid13_p5	gamma_cid14_p0
0.5	-0.4367967978103599	-0.0704048134356576	0.7670954694319639	1.243165793157189	-0.3095682696943729	-0.04912361832751021	-0.3290009228604933	0.6797863329253359	0.6797863329254723	-0.1733369799444379	0.1744019892790557	0.03919289466643777	-0.04835140934990537	-0.7167402251044342	-0.2630532222774405	-0.481626242447308	2.318478436408795	-0.03450882360424256	0.6111137230535273	-0.618952700990741	1.75259372246197	1.752593722462209	-0.00497950229418766	0.0007578462863975347	0.2445432560716455	-0.006963476194309258	-0.2404819629864583	0.01661216282471649	-0.02155919433340281	-0.2040369779578598	0.1396775055539621	0.04350358554555583	0.217754693386463	6.030002251150662	-22.77331888389164	6.453846185662002	-4.968818255223165	-608.3654352002254	-60.74258744472378	-28.83223872317284	0.5984804449841854	0.6761625462249021	-0.3065818689993147	-1.496347777152963	0.5868053521196724	-0.2963601694337377	1.752786178521824	-1.086482744661021	-1.086482744661274	0.02534499020874343	-0.02789326776045126	-0.1294044554833719	0.5670973530961712	-2.428673655195817e-07	-8.170002597224152e-07	1.213811323693345e-06	4.323404658182157e-08	-3.255038692415245e-07	-8.661396968949067e-09	-2.853480739720473e-07
0.51	-0.4439327578782071	-0.07300128268988829	0.7622648631238628	1.266271780120963	-0.309885482956587	-0.04302748939761399	-0.33510292636923	0.6972551950486746	0.6972551950486966	-0.1733883554191145	0.1744087025154164	0.04163084284225183	-0.04839430408697174	-0.7103618898656	-0.2562229946962966	-0.4843995200977184	2.302429453073292	-0.02894648569813738	0.6080126870983077	-0.6013936836911556	1.74095206580037	1.740952065800443	-0.005276433066962291	0.0006055640921255394	0.2429931911290574	-0.001630180639198778	-0.2483235510451795	0.0172470611492363	-0.02166611270730139	-0.2052641667003728	0.1392836480735722	0.04406685997767867	0.2238106754601276	5.674498744386769	-22.85082327899396	6.346404385406332	-4.839882603254214	-612.6055238437292	-60.35402280958724	-27.82269356051894	0.6709572380308959	0.6891177603672337	-0.2484475820528267	-1.70264483895591	0.5389397745101311	-0.3321658785628903	1.765607065487418	-1.236939755568228	-1.236939755593025	-0.05438553204490155	-0.006102292148890139	-0.1757873258023712	0.5141770464099334	-2.984545136142259e-07	-6.49692827905971e-07	1.482651580274921e-06	1.067099602103001e-07	-3.517133099932884e-07	4.439219072407039e-08	-3.091624422215165e-07
0.52	-0.451002245158725	-0.07552891668904591	0.7574093746654591	1.289208583005943	-0.3101474744868081	-0.03696540894127132	-0.3410277101930082	0.714600854079669	0.7146008540795671	-0.173442134885733	0.1744144516104462	0.04405169440620885	-0.04838431959054872	-0.7034456676388544	-0.2492861712628303	-0.4866026725077748	2.284641620649507	-0.02346447720586424	0.6043040283432168	-0.5835087639991484	1.727953103992417	1.727953103992325	-0.005460300680709533	0.0005650180223223768	0.2411239337002358	0.003612370503569732	-0.256165139103895	0.01788195947375401	-0.02177303108128077	-0.2064913554428765	0.1388897905931804	0.04463013440979763	0.2298666575337996	5.314084306006515	-22.93115337351408	6.243623663089524	-4.723178815213601	-616.9396540204178	-60.04319878537278	-26.80638197966831	0.7060578425664428	0.6974817166893403	-0.1925568209285135	-1.844117594809328	0.570739469353264	-0.4178847294079368	1.817966657006198	-1.357943773931668	-1.357943773931705	0.04795762201422436	-0.005546042866691237	-0.1932429527300714	0.5489484706277789	-2.967597111020528e-07	-5.543525300762462e-07	1.485567686877807e-06	1.221309882417703e-07	-3.376956397616786e-07	8.094312630014244e-08	-2.990633099740641e-07
0.53	-0.4580000385476122	-0.07798669863017303	0.7525347304167013	1.31195904077428	-0.3103550270465166	-0.0309429218893528	-0.346772072088683	0.7318097793374567	0.7318097793374442	-0.1734973163634658	0.1744199165214405	0.04645233286476459	-0.04832233506502127	-0.696029676695252	-0.2422562009058762	-0.4882273674705359	2.26516672996606	-0.01806715924385961	0.6001200414834501	-0.5653233997607424	1.713607922418506	1.713607922418517	-0.005577133698229002	0.0005303758530617205	0.238955393873971	0.008761768434740138	-0.2637514187527897	0.01824245019577056	-0.0218745207444762	-0.2080088015435722	0.1388836867717222	0.04498929085332697	0.2356972473675362	5.073795307033072	-22.94630190704536	6.133230396832388	-4.666430115018319	-621.2509372411797	-59.65819118292472	-25.79048486007128	0.7718340264676556	0.7078831498757396	-0.1326704345263319	-2.041698745222318	0.520922647356777	-0.4299163675103042	1.824853613517194	-1.506350369383085	-1.506350369367631	-0.04169362071182783	-0.002376722943156414	-0.235911833809401	0.4944272134380511	-2.769512316718933e-07	-4.923740587723719e-07	1.400714927570175e-06	1.177133270297752e-07	-3.100969574345144e-07	1.03862817322497e-07	-2.793371248878437e-07
